<svg width="588pt" height="625pt" viewBox="0.00 0.00 588.00 625.00" xmlns="http://www.w3.org/2000/svg" xmlns:xlink="http://www.w3.org/1999/xlink">
<g id="graph0" class="graph" transform="scale(1 1) rotate(0) translate(4 621.01)">
<title>G</title>
<polygon fill="white" stroke="none" points="-4,4 -4,-621.01 584,-621.01 584,4 -4,4"/>
<g id="clust1" class="cluster">
<title>cluster_0</title>
<polygon fill="lightgrey" stroke="lightgrey" points="8,-64.21 8,-573.01 560,-573.01 560,-64.21 8,-64.21"/>
<text xml:space="preserve" text-anchor="middle" x="284" y="-556.41" font-family="Times,serif" font-size="14.00">process Database Design: ER diagram, table descriptions, and relationships.</text>
</g>
<!-- login -->
<g id="node1" class="node">
<title>login</title>
<ellipse fill="white" stroke="white" cx="508" cy="-522.21" rx="30.89" ry="18"/>
<text xml:space="preserve" text-anchor="middle" x="508" y="-518.01" font-family="Times,serif" font-size="14.00">login</text>
</g>
<!-- homepage -->
<g id="node2" class="node">
<title>homepage</title>
<polygon fill="white" stroke="white" points="532.77,-468.21 459.23,-468.21 459.23,-432.21 532.77,-432.21 532.77,-468.21"/>
<text xml:space="preserve" text-anchor="middle" x="496" y="-446.01" font-family="Times,serif" font-size="14.00">homepage</text>
</g>
<!-- login&#45;&gt;homepage -->
<g id="edge1" class="edge">
<title>login-&gt;homepage</title>
<path fill="none" stroke="black" d="M505.03,-503.91C503.77,-496.54 502.26,-487.74 500.84,-479.46"/>
<polygon fill="black" stroke="black" points="504.33,-479.07 499.19,-469.81 497.43,-480.26 504.33,-479.07"/>
</g>
<!-- student -->
<g id="node3" class="node">
<title>student</title>
<polygon fill="white" stroke="white" points="457.22,-396.21 400.78,-396.21 400.78,-360.21 457.22,-360.21 457.22,-396.21"/>
<text xml:space="preserve" text-anchor="middle" x="429" y="-374.01" font-family="Times,serif" font-size="14.00">student</text>
</g>
<!-- homepage&#45;&gt;student -->
<g id="edge2" class="edge">
<title>homepage-&gt;student</title>
<path fill="none" stroke="black" d="M473.52,-431.91C464.89,-423.77 455.24,-413.9 447.07,-404.92"/>
<polygon fill="black" stroke="black" points="449.72,-402.63 440.48,-397.45 444.47,-407.27 449.72,-402.63"/>
</g>
<!-- department -->
<g id="node4" class="node">
<title>department</title>
<polygon fill="white" stroke="white" points="477.49,-324.21 398.51,-324.21 398.51,-288.21 477.49,-288.21 477.49,-324.21"/>
<text xml:space="preserve" text-anchor="middle" x="438" y="-302.01" font-family="Times,serif" font-size="14.00">department</text>
</g>
<!-- homepage&#45;&gt;department -->
<g id="edge8" class="edge">
<title>homepage-&gt;department</title>
<path fill="none" stroke="black" d="M484.33,-431.84C476.67,-413.68 467.42,-384.49 457,-360.21 453.39,-351.8 448.95,-342.91 445.05,-334.86"/>
<polygon fill="black" stroke="black" points="448.26,-333.46 440.83,-325.9 441.92,-336.44 448.26,-333.46"/>
</g>
<!-- course -->
<g id="node5" class="node">
<title>course</title>
<polygon fill="white" stroke="white" points="497,-252.21 443,-252.21 443,-216.21 497,-216.21 497,-252.21"/>
<text xml:space="preserve" text-anchor="middle" x="470" y="-230.01" font-family="Times,serif" font-size="14.00">course</text>
</g>
<!-- homepage&#45;&gt;course -->
<g id="edge9" class="edge">
<title>homepage-&gt;course</title>
<path fill="none" stroke="black" d="M490.79,-432.14C487.33,-402.57 486.3,-340.04 477,-288.21 475.56,-280.17 473.31,-271.63 471.28,-263.8"/>
<polygon fill="black" stroke="black" points="474.67,-262.96 468.86,-254.1 467.88,-264.65 474.67,-262.96"/>
</g>
<!-- setting -->
<g id="node6" class="node">
<title>setting</title>
<polygon fill="white" stroke="white" points="520,-180.21 466,-180.21 466,-144.21 520,-144.21 520,-180.21"/>
<text xml:space="preserve" text-anchor="middle" x="493" y="-158.01" font-family="Times,serif" font-size="14.00">setting</text>
</g>
<!-- homepage&#45;&gt;setting -->
<g id="edge10" class="edge">
<title>homepage-&gt;setting</title>
<path fill="none" stroke="black" d="M493.92,-431.89C495.2,-393.11 506.69,-296.41 497,-216.21 496.03,-208.22 494.28,-199.69 492.69,-191.86"/>
<polygon fill="black" stroke="black" points="496.15,-191.33 490.82,-182.17 489.28,-192.65 496.15,-191.33"/>
</g>
<!-- student&#45;&gt;homepage -->
<g id="edge11" class="edge">
<title>student-&gt;homepage</title>
<path fill="none" stroke="black" d="M451.52,-396.56C460.09,-404.64 469.66,-414.43 477.79,-423.36"/>
<polygon fill="black" stroke="black" points="475.11,-425.6 484.35,-430.78 480.35,-420.97 475.11,-425.6"/>
</g>
<!-- student&#45;&gt;department -->
<g id="edge15" class="edge">
<title>student-&gt;department</title>
<path fill="none" stroke="black" d="M425.31,-359.91C425.5,-352.54 426.39,-343.74 427.73,-335.46"/>
<polygon fill="black" stroke="black" points="431.14,-336.29 429.62,-325.8 424.27,-334.95 431.14,-336.29"/>
</g>
<!-- saveupdateSI -->
<g id="node7" class="node">
<title>saveupdateSI</title>
<ellipse fill="white" stroke="white" cx="185" cy="-306.21" rx="62.52" ry="18"/>
<text xml:space="preserve" text-anchor="middle" x="185" y="-302.01" font-family="Times,serif" font-size="14.00">saveupdateSI</text>
</g>
<!-- student&#45;&gt;saveupdateSI -->
<g id="edge3" class="edge">
<title>student-&gt;saveupdateSI</title>
<path fill="none" stroke="black" d="M400.53,-369.05C361.03,-357.71 288.83,-337 238.95,-322.69"/>
<polygon fill="black" stroke="black" points="240.07,-319.37 229.49,-319.98 238.14,-326.1 240.07,-319.37"/>
</g>
<!-- viewSItable -->
<g id="node8" class="node">
<title>viewSItable</title>
<ellipse fill="white" stroke="white" cx="323" cy="-306.21" rx="57.16" ry="18"/>
<text xml:space="preserve" text-anchor="middle" x="323" y="-302.01" font-family="Times,serif" font-size="14.00">viewSItable</text>
</g>
<!-- student&#45;&gt;viewSItable -->
<g id="edge21" class="edge">
<title>student-&gt;viewSItable</title>
<path fill="none" stroke="black" d="M402.53,-359.73C388.44,-350.43 370.99,-338.9 356.02,-329.02"/>
<polygon fill="black" stroke="black" points="358.15,-326.23 347.87,-323.64 354.29,-332.07 358.15,-326.23"/>
</g>
<!-- deleteSI -->
<g id="node9" class="node">
<title>deleteSI</title>
<ellipse fill="white" stroke="white" cx="62" cy="-306.21" rx="42.68" ry="18"/>
<text xml:space="preserve" text-anchor="middle" x="62" y="-302.01" font-family="Times,serif" font-size="14.00">deleteSI</text>
</g>
<!-- student&#45;&gt;deleteSI -->
<g id="edge22" class="edge">
<title>student-&gt;deleteSI</title>
<path fill="none" stroke="black" d="M400.37,-373.93C344.54,-367.19 217.45,-350.21 113,-324.21 110.27,-323.53 107.47,-322.78 104.66,-321.97"/>
<polygon fill="black" stroke="black" points="105.91,-318.7 95.33,-319.13 103.87,-325.39 105.91,-318.7"/>
</g>
<!-- department&#45;&gt;homepage -->
<g id="edge12" class="edge">
<title>department-&gt;homepage</title>
<path fill="none" stroke="black" d="M455.93,-324.53C462.74,-334.72 469.74,-347.97 475,-360.21 483.51,-380.03 491.23,-403.13 495.47,-420.82"/>
<polygon fill="black" stroke="black" points="491.99,-421.29 497.46,-430.36 498.85,-419.86 491.99,-421.29"/>
</g>
<!-- department&#45;&gt;student -->
<g id="edge20" class="edge">
<title>department-&gt;student</title>
<path fill="none" stroke="black" d="M441.7,-324.32C441.52,-331.67 440.64,-340.46 439.31,-348.74"/>
<polygon fill="black" stroke="black" points="435.9,-347.94 437.43,-358.42 442.77,-349.27 435.9,-347.94"/>
</g>
<!-- department&#45;&gt;course -->
<g id="edge16" class="edge">
<title>department-&gt;course</title>
<path fill="none" stroke="black" d="M439.99,-287.91C442.73,-280.2 446.74,-270.93 451.01,-262.33"/>
<polygon fill="black" stroke="black" points="454.01,-264.14 455.58,-253.66 447.82,-260.87 454.01,-264.14"/>
</g>
<!-- addDelYearSection -->
<g id="node10" class="node">
<title>addDelYearSection</title>
<ellipse fill="white" stroke="white" cx="338" cy="-234.21" rx="86.65" ry="18"/>
<text xml:space="preserve" text-anchor="middle" x="338" y="-230.01" font-family="Times,serif" font-size="14.00">addDelYearSection</text>
</g>
<!-- department&#45;&gt;addDelYearSection -->
<g id="edge4" class="edge">
<title>department-&gt;addDelYearSection</title>
<path fill="none" stroke="black" d="M413.02,-287.73C400.33,-278.85 384.74,-267.93 371.07,-258.36"/>
<polygon fill="black" stroke="black" points="373.41,-255.73 363.21,-252.86 369.39,-261.46 373.41,-255.73"/>
</g>
<!-- viewDeptSectionsSItable -->
<g id="node11" class="node">
<title>viewDeptSectionsSItable</title>
<ellipse fill="white" stroke="white" cx="125" cy="-234.21" rx="108.66" ry="18"/>
<text xml:space="preserve" text-anchor="middle" x="125" y="-230.01" font-family="Times,serif" font-size="14.00">viewDeptSectionsSItable</text>
</g>
<!-- department&#45;&gt;viewDeptSectionsSItable -->
<g id="edge23" class="edge">
<title>department-&gt;viewDeptSectionsSItable</title>
<path fill="none" stroke="black" d="M398.03,-290.85C394.99,-289.91 391.95,-289.02 389,-288.21 330.49,-272.27 263.48,-258.87 211.62,-249.54"/>
<polygon fill="black" stroke="black" points="212.4,-246.12 201.94,-247.82 211.18,-253.02 212.4,-246.12"/>
</g>
<!-- course&#45;&gt;homepage -->
<g id="edge13" class="edge">
<title>course-&gt;homepage</title>
<path fill="none" stroke="black" d="M484.24,-252.63C488.83,-262.85 492.83,-276.1 495,-288.21 503.25,-334.17 504.99,-388.54 502.72,-420.89"/>
<polygon fill="black" stroke="black" points="499.26,-420.35 501.8,-430.63 506.23,-421 499.26,-420.35"/>
</g>
<!-- course&#45;&gt;department -->
<g id="edge19" class="edge">
<title>course-&gt;department</title>
<path fill="none" stroke="black" d="M468.08,-252.32C465.37,-260.01 461.37,-269.27 457.1,-277.88"/>
<polygon fill="black" stroke="black" points="454.09,-276.09 452.53,-286.57 460.28,-279.35 454.09,-276.09"/>
</g>
<!-- course&#45;&gt;setting -->
<g id="edge17" class="edge">
<title>course-&gt;setting</title>
<path fill="none" stroke="black" d="M469.77,-215.91C471.47,-208.37 474.2,-199.33 477.29,-190.89"/>
<polygon fill="black" stroke="black" points="480.49,-192.31 480.93,-181.73 473.98,-189.73 480.49,-192.31"/>
</g>
<!-- addDelCourseSubject -->
<g id="node12" class="node">
<title>addDelCourseSubject</title>
<ellipse fill="white" stroke="white" cx="177" cy="-162.21" rx="95.25" ry="18"/>
<text xml:space="preserve" text-anchor="middle" x="177" y="-158.01" font-family="Times,serif" font-size="14.00">addDelCourseSubject</text>
</g>
<!-- course&#45;&gt;addDelCourseSubject -->
<g id="edge5" class="edge">
<title>course-&gt;addDelCourseSubject</title>
<path fill="none" stroke="black" d="M442.76,-219.53C439.84,-218.31 436.88,-217.18 434,-216.21 401.54,-205.38 318.67,-189.01 255.74,-177.33"/>
<polygon fill="black" stroke="black" points="256.59,-173.93 246.12,-175.55 255.32,-180.81 256.59,-173.93"/>
</g>
<!-- viewCourseTable -->
<g id="node13" class="node">
<title>viewCourseTable</title>
<ellipse fill="white" stroke="white" cx="369" cy="-162.21" rx="79.15" ry="18"/>
<text xml:space="preserve" text-anchor="middle" x="369" y="-158.01" font-family="Times,serif" font-size="14.00">viewCourseTable</text>
</g>
<!-- course&#45;&gt;viewCourseTable -->
<g id="edge24" class="edge">
<title>course-&gt;viewCourseTable</title>
<path fill="none" stroke="black" d="M444.77,-215.73C431.86,-206.78 415.98,-195.77 402.09,-186.15"/>
<polygon fill="black" stroke="black" points="404.32,-183.43 394.11,-180.62 400.33,-189.19 404.32,-183.43"/>
</g>
<!-- setting&#45;&gt;homepage -->
<g id="edge14" class="edge">
<title>setting-&gt;homepage</title>
<path fill="none" stroke="black" d="M506.28,-180.68C510.3,-190.92 513.55,-204.17 515,-216.21 523.88,-289.67 514.98,-376.99 505.89,-420.94"/>
<polygon fill="black" stroke="black" points="502.54,-419.89 503.74,-430.42 509.37,-421.44 502.54,-419.89"/>
</g>
<!-- setting&#45;&gt;course -->
<g id="edge18" class="edge">
<title>setting-&gt;course</title>
<path fill="none" stroke="black" d="M493.28,-180.32C491.59,-187.84 488.87,-196.86 485.79,-205.31"/>
<polygon fill="black" stroke="black" points="482.58,-203.92 482.16,-214.5 489.09,-206.49 482.58,-203.92"/>
</g>
<!-- themes -->
<g id="node14" class="node">
<title>themes</title>
<ellipse fill="white" stroke="white" cx="54" cy="-90.21" rx="38.39" ry="18"/>
<text xml:space="preserve" text-anchor="middle" x="54" y="-86.01" font-family="Times,serif" font-size="14.00">themes</text>
</g>
<!-- setting&#45;&gt;themes -->
<g id="edge6" class="edge">
<title>setting-&gt;themes</title>
<path fill="none" stroke="black" d="M465.85,-147.22C462.92,-146.07 459.93,-145.03 457,-144.21 304.21,-101.74 256.74,-142.93 102,-108.21 99.21,-107.59 96.35,-106.85 93.5,-106.03"/>
<polygon fill="black" stroke="black" points="94.64,-102.72 84.05,-103.06 92.54,-109.4 94.64,-102.72"/>
</g>
<!-- accountmanagement -->
<g id="node15" class="node">
<title>accountmanagement</title>
<ellipse fill="white" stroke="white" cx="201" cy="-90.21" rx="90.4" ry="18"/>
<text xml:space="preserve" text-anchor="middle" x="201" y="-86.01" font-family="Times,serif" font-size="14.00">accountmanagement</text>
</g>
<!-- setting&#45;&gt;accountmanagement -->
<g id="edge25" class="edge">
<title>setting-&gt;accountmanagement</title>
<path fill="none" stroke="black" d="M465.76,-147.53C462.84,-146.31 459.88,-145.18 457,-144.21 424.36,-133.3 340.56,-116.72 277.67,-105.01"/>
<polygon fill="black" stroke="black" points="278.54,-101.62 268.07,-103.24 277.26,-108.5 278.54,-101.62"/>
</g>
<!-- clearlocalstorage -->
<g id="node16" class="node">
<title>clearlocalstorage</title>
<ellipse fill="white" stroke="white" cx="386" cy="-90.21" rx="76.45" ry="18"/>
<text xml:space="preserve" text-anchor="middle" x="386" y="-86.01" font-family="Times,serif" font-size="14.00">clearlocalstorage</text>
</g>
<!-- setting&#45;&gt;clearlocalstorage -->
<g id="edge26" class="edge">
<title>setting-&gt;clearlocalstorage</title>
<path fill="none" stroke="black" d="M466.28,-143.73C452.36,-134.63 435.19,-123.4 420.31,-113.66"/>
<polygon fill="black" stroke="black" points="422.47,-110.89 412.18,-108.34 418.64,-116.75 422.47,-110.89"/>
</g>
<!-- logout -->
<g id="node17" class="node">
<title>logout</title>
<ellipse fill="white" stroke="white" cx="516" cy="-90.21" rx="35.72" ry="18"/>
<text xml:space="preserve" text-anchor="middle" x="516" y="-86.01" font-family="Times,serif" font-size="14.00">logout</text>
</g>
<!-- setting&#45;&gt;logout -->
<g id="edge27" class="edge">
<title>setting-&gt;logout</title>
<path fill="none" stroke="black" d="M498.69,-143.91C501.14,-136.45 504.07,-127.54 506.81,-119.18"/>
<polygon fill="black" stroke="black" points="510.11,-120.35 509.91,-109.76 503.46,-118.16 510.11,-120.35"/>
</g>
<!-- end -->
<g id="node19" class="node">
<title>end</title>
<polygon fill="none" stroke="black" points="566.11,-36.21 529.89,-36.21 529.89,0 566.11,0 566.11,-36.21"/>
<polyline fill="none" stroke="black" points="541.89,-36.21 529.89,-24.21"/>
<polyline fill="none" stroke="black" points="529.89,-12 541.89,0"/>
<polyline fill="none" stroke="black" points="554.11,0 566.11,-12"/>
<polyline fill="none" stroke="black" points="566.11,-24.21 554.11,-36.21"/>
<text xml:space="preserve" text-anchor="middle" x="548" y="-13.91" font-family="Times,serif" font-size="14.00">end</text>
</g>
<!-- logout&#45;&gt;end -->
<g id="edge28" class="edge">
<title>logout-&gt;end</title>
<path fill="none" stroke="black" d="M523.75,-72.24C527.23,-64.61 531.44,-55.39 535.36,-46.8"/>
<polygon fill="black" stroke="black" points="538.51,-48.34 539.47,-37.79 532.14,-45.43 538.51,-48.34"/>
</g>
<!-- start -->
<g id="node18" class="node">
<title>start</title>
<polygon fill="none" stroke="black" points="508,-617.01 468.88,-599.01 508,-581.01 547.12,-599.01 508,-617.01"/>
<polyline fill="none" stroke="black" points="479.78,-604.03 479.78,-594"/>
<polyline fill="none" stroke="black" points="497.1,-586.03 518.9,-586.03"/>
<polyline fill="none" stroke="black" points="536.22,-594 536.22,-604.03"/>
<polyline fill="none" stroke="black" points="518.9,-612 497.1,-612"/>
<text xml:space="preserve" text-anchor="middle" x="508" y="-594.81" font-family="Times,serif" font-size="14.00">start</text>
</g>
<!-- start&#45;&gt;login -->
<g id="edge7" class="edge">
<title>start-&gt;login</title>
<path fill="none" stroke="black" d="M508,-580.67C508,-572.07 508,-561.48 508,-551.74"/>
<polygon fill="black" stroke="black" points="511.5,-551.98 508,-541.98 504.5,-551.98 511.5,-551.98"/>
</g>
<!-- end&#45;&gt;login -->
<g id="edge29" class="edge">
<title>end-&gt;login</title>
<path fill="none" stroke="black" d="M554.48,-36.33C563.83,-62.78 580,-115.19 580,-161.21 580,-379.21 580,-379.21 580,-379.21 580,-424.71 550.24,-470.4 528.98,-497.23"/>
<polygon fill="black" stroke="black" points="526.47,-494.78 522.84,-504.73 531.88,-499.21 526.47,-494.78"/>
</g>
</g>
</svg>